<mxfile host="app.diagrams.net" modified="2023-07-13T08:10:45.759Z" agent="Mozilla/5.0 (Windows NT 10.0; Win64; x64) AppleWebKit/537.36 (KHTML, like Gecko) Chrome/114.0.0.0 Safari/537.36 Edg/114.0.1823.79" etag="APOc3G4at49E7wVWTGBR" version="21.6.2" type="github">
  <diagram id="a45cf8ec-cd66-6f27-3ac3-be6e809c9e4a" name="Page-1">
    <mxGraphModel dx="1820" dy="966" grid="0" gridSize="10" guides="1" tooltips="1" connect="1" arrows="1" fold="1" page="1" pageScale="1" pageWidth="827" pageHeight="1169" background="#fafafa" math="0" shadow="0">
      <root>
        <mxCell id="0" />
        <mxCell id="1" parent="0" />
        <mxCell id="6" value="&lt;span style=&quot;line-height: 17.1818px; font-size: 22px;&quot;&gt;操作员站&lt;/span&gt;" style="rounded=1;whiteSpace=wrap;html=1;shadow=0;strokeColor=#006EAF;fillColor=#1ba1e2;fontSize=22;verticalAlign=top;fontStyle=0;opacity=70;strokeWidth=3;fontColor=#ffffff;" parent="1" vertex="1">
          <mxGeometry x="322" y="259" width="295" height="115" as="geometry" />
        </mxCell>
        <mxCell id="7" value="采集服务器" style="rounded=1;whiteSpace=wrap;html=1;shadow=0;strokeColor=#006EAF;fillColor=#1ba1e2;fontSize=22;verticalAlign=top;fontStyle=0;opacity=70;strokeWidth=3;fontColor=#ffffff;" parent="1" vertex="1">
          <mxGeometry x="637" y="249" width="270" height="120" as="geometry" />
        </mxCell>
        <mxCell id="8" value="工程师站" style="rounded=1;whiteSpace=wrap;html=1;shadow=0;strokeColor=#006EAF;fillColor=#1ba1e2;fontSize=22;verticalAlign=top;fontStyle=0;opacity=70;strokeWidth=3;fontColor=#ffffff;" parent="1" vertex="1">
          <mxGeometry x="927" y="249" width="280" height="130" as="geometry" />
        </mxCell>
        <mxCell id="9" value="&lt;span style=&quot;line-height: 17.1818px; font-size: 22px;&quot;&gt;移动端显示&lt;/span&gt;" style="rounded=1;whiteSpace=wrap;html=1;shadow=0;strokeColor=#006EAF;fillColor=#1ba1e2;fontSize=22;verticalAlign=top;opacity=70;fontStyle=0;strokeWidth=3;fontColor=#ffffff;" parent="1" vertex="1">
          <mxGeometry x="907" y="71" width="300" height="105" as="geometry" />
        </mxCell>
        <mxCell id="11" value="" style="rounded=1;whiteSpace=wrap;html=1;shadow=0;strokeColor=#006EAF;fillColor=#1ba1e2;fontSize=18;fontStyle=0;verticalAlign=bottom;opacity=40;strokeWidth=3;fontColor=#ffffff;" parent="1" vertex="1">
          <mxGeometry x="984" y="781" width="368" height="179" as="geometry" />
        </mxCell>
        <mxCell id="12" value="" style="rounded=1;whiteSpace=wrap;html=1;shadow=0;strokeColor=#006EAF;fillColor=#1ba1e2;fontSize=18;verticalAlign=bottom;fontStyle=0;opacity=40;strokeWidth=3;fontColor=#ffffff;" parent="1" vertex="1">
          <mxGeometry x="1179" y="590" width="359" height="180" as="geometry" />
        </mxCell>
        <mxCell id="14" value="" style="rounded=1;whiteSpace=wrap;html=1;shadow=0;strokeColor=#006EAF;fillColor=#1ba1e2;fontSize=18;fontStyle=0;verticalAlign=bottom;opacity=40;strokeWidth=3;fontColor=#ffffff;" parent="1" vertex="1">
          <mxGeometry x="517" y="803" width="347" height="157" as="geometry" />
        </mxCell>
        <mxCell id="15" value="&lt;p class=&quot;MsoNormal&quot;&gt;&lt;br&gt;&lt;/p&gt;&lt;p class=&quot;MsoNormal&quot;&gt;&lt;br&gt;&lt;/p&gt;" style="rounded=1;whiteSpace=wrap;html=1;shadow=0;strokeColor=#006EAF;fillColor=#1ba1e2;fontSize=18;verticalAlign=bottom;fontStyle=0;opacity=40;strokeWidth=3;fontColor=#ffffff;" parent="1" vertex="1">
          <mxGeometry x="322" y="618" width="394" height="171" as="geometry" />
        </mxCell>
        <mxCell id="16" value="" style="rounded=1;whiteSpace=wrap;html=1;shadow=0;strokeColor=#006EAF;fillColor=#1ba1e2;fontSize=18;verticalAlign=bottom;fontStyle=0;opacity=40;strokeWidth=3;fontColor=#ffffff;" parent="1" vertex="1">
          <mxGeometry x="22" y="638" width="115" height="240" as="geometry" />
        </mxCell>
        <mxCell id="18" value="&lt;font style=&quot;font-size: 24px;&quot;&gt;5G(第三方搭建)&lt;/font&gt;" style="ellipse;shape=cloud;whiteSpace=wrap;html=1;shadow=0;strokeColor=#b85450;fillColor=#f8cecc;fontSize=18;gradientDirection=north;fontStyle=0;strokeWidth=2;" parent="1" vertex="1">
          <mxGeometry x="380" y="450" width="720" height="54" as="geometry" />
        </mxCell>
        <mxCell id="33" value="" style="image;html=1;image=img/lib/clip_art/computers/Netbook_128x128.png;shadow=0;strokeColor=#006EAF;fillColor=#1ba1e2;fontSize=18;fontStyle=0;fontColor=#ffffff;" parent="1" vertex="1">
          <mxGeometry x="927" y="91" width="80" height="80" as="geometry" />
        </mxCell>
        <mxCell id="34" value="" style="image;html=1;image=img/lib/clip_art/computers/Netbook_128x128.png;shadow=0;strokeColor=#006EAF;fillColor=#1ba1e2;fontSize=18;fontStyle=0;fontColor=#ffffff;" parent="1" vertex="1">
          <mxGeometry x="1017" y="91" width="80" height="80" as="geometry" />
        </mxCell>
        <mxCell id="36" value="" style="image;html=1;image=img/lib/clip_art/computers/Netbook_128x128.png;shadow=0;strokeColor=#006EAF;fillColor=#1ba1e2;fontSize=18;fontStyle=0;fontColor=#ffffff;" parent="1" vertex="1">
          <mxGeometry x="337" y="284" width="80" height="80" as="geometry" />
        </mxCell>
        <mxCell id="37" value="" style="image;html=1;image=img/lib/clip_art/computers/Netbook_128x128.png;shadow=0;strokeColor=#006EAF;fillColor=#1ba1e2;fontSize=18;fontStyle=0;fontColor=#ffffff;" parent="1" vertex="1">
          <mxGeometry x="427" y="284" width="80" height="80" as="geometry" />
        </mxCell>
        <mxCell id="38" value="" style="image;html=1;image=img/lib/clip_art/computers/Netbook_128x128.png;shadow=0;strokeColor=#006EAF;fillColor=#1ba1e2;fontSize=18;fontStyle=0;fontColor=#ffffff;" parent="1" vertex="1">
          <mxGeometry x="527" y="284" width="80" height="80" as="geometry" />
        </mxCell>
        <mxCell id="39" value="" style="image;html=1;image=img/lib/clip_art/computers/Server_Rack_128x128.png;shadow=0;strokeColor=#006EAF;fillColor=#1ba1e2;fontSize=18;fontStyle=0;fontColor=#ffffff;" parent="1" vertex="1">
          <mxGeometry x="637" y="284" width="80" height="80" as="geometry" />
        </mxCell>
        <mxCell id="40" value="" style="image;html=1;image=img/lib/clip_art/computers/Server_Rack_128x128.png;shadow=0;strokeColor=#006EAF;fillColor=#1ba1e2;fontSize=18;fontStyle=0;fontColor=#ffffff;" parent="1" vertex="1">
          <mxGeometry x="727" y="284" width="80" height="80" as="geometry" />
        </mxCell>
        <mxCell id="41" value="" style="image;html=1;image=img/lib/clip_art/computers/Server_Rack_128x128.png;shadow=0;strokeColor=#006EAF;fillColor=#1ba1e2;fontSize=18;fontStyle=0;fontColor=#ffffff;" parent="1" vertex="1">
          <mxGeometry x="817" y="284" width="80" height="80" as="geometry" />
        </mxCell>
        <mxCell id="42" value="" style="image;html=1;image=img/lib/clip_art/computers/Server_Tower_128x128.png;shadow=0;strokeColor=#006EAF;fillColor=#1ba1e2;fontSize=18;fontStyle=0;fontColor=#ffffff;" parent="1" vertex="1">
          <mxGeometry x="932" y="294" width="80" height="80" as="geometry" />
        </mxCell>
        <mxCell id="43" value="" style="image;html=1;image=img/lib/clip_art/computers/Server_Tower_128x128.png;shadow=0;strokeColor=#006EAF;fillColor=#1ba1e2;fontSize=18;fontStyle=0;fontColor=#ffffff;" parent="1" vertex="1">
          <mxGeometry x="1032" y="294" width="80" height="80" as="geometry" />
        </mxCell>
        <mxCell id="44" value="" style="image;html=1;image=img/lib/clip_art/computers/Server_Tower_128x128.png;shadow=0;strokeColor=#006EAF;fillColor=#1ba1e2;fontSize=18;fontStyle=0;fontColor=#ffffff;" parent="1" vertex="1">
          <mxGeometry x="1122" y="294" width="80" height="80" as="geometry" />
        </mxCell>
        <mxCell id="47" value="" style="strokeWidth=2;strokeColor=#006EAF;dashed=0;align=center;html=1;fontSize=8;shape=mxgraph.eip.messageChannel;shadow=0;fillColor=#1ba1e2;fontStyle=0;fontColor=#ffffff;" parent="1" vertex="1">
          <mxGeometry x="925" y="201" width="412" height="20" as="geometry" />
        </mxCell>
        <mxCell id="48" value="" style="strokeWidth=2;strokeColor=#006EAF;dashed=0;align=center;html=1;fontSize=8;shape=mxgraph.eip.messageChannel;shadow=0;fillColor=#1ba1e2;fontStyle=0;fontColor=#ffffff;" parent="1" vertex="1">
          <mxGeometry x="237" y="404" width="1090" height="20" as="geometry" />
        </mxCell>
        <mxCell id="52" value="" style="image;html=1;image=img/lib/clip_art/networking/Router_128x128.png;shadow=0;strokeColor=#006EAF;fillColor=#1ba1e2;fontSize=18;fontStyle=0;fontColor=#ffffff;" parent="1" vertex="1">
          <mxGeometry x="1257" y="83" width="80" height="80" as="geometry" />
        </mxCell>
        <mxCell id="55" value="" style="image;html=1;image=img/lib/clip_art/networking/Wireless_Router_128x128.png;shadow=1;strokeColor=#006EAF;fillColor=#1ba1e2;fontSize=18;fontStyle=0;fontColor=#ffffff;" parent="1" vertex="1">
          <mxGeometry x="407" y="480" width="80" height="80" as="geometry" />
        </mxCell>
        <mxCell id="58" style="edgeStyle=orthogonalEdgeStyle;rounded=0;html=1;fontSize=18;fontColor=#080808;endArrow=none;endFill=0;strokeColor=#006EAF;strokeWidth=2;curved=1;fontStyle=0;exitX=0.382;exitY=1.008;exitDx=0;exitDy=0;exitPerimeter=0;entryX=0.963;entryY=0.566;entryDx=0;entryDy=0;entryPerimeter=0;fillColor=#1ba1e2;" parent="1" source="0OJiW1GiiW1duZjf36XK-173" target="62" edge="1">
          <mxGeometry relative="1" as="geometry">
            <mxPoint x="709" y="529" as="sourcePoint" />
            <mxPoint x="661.9999999999995" y="625" as="targetPoint" />
            <Array as="points" />
          </mxGeometry>
        </mxCell>
        <mxCell id="62" value="" style="strokeWidth=2;strokeColor=#006EAF;dashed=0;align=center;html=1;fontSize=8;shape=mxgraph.eip.messageChannel;shadow=0;fillColor=#1ba1e2;fontStyle=0;fontColor=#ffffff;" parent="1" vertex="1">
          <mxGeometry x="350" y="743.25" width="324" height="20" as="geometry" />
        </mxCell>
        <mxCell id="66" value="" style="strokeWidth=2;strokeColor=#006EAF;dashed=0;align=center;html=1;fontSize=8;shape=mxgraph.eip.messageChannel;shadow=0;fillColor=#1ba1e2;fontStyle=0;fontColor=#ffffff;" parent="1" vertex="1">
          <mxGeometry x="542" y="905" width="281" height="20" as="geometry" />
        </mxCell>
        <mxCell id="70" value="" style="strokeWidth=2;strokeColor=#006EAF;dashed=0;align=center;html=1;fontSize=8;shape=mxgraph.eip.messageChannel;shadow=0;fillColor=#1ba1e2;fontStyle=0;fontColor=#ffffff;" parent="1" vertex="1">
          <mxGeometry x="1209" y="718" width="303" height="20" as="geometry" />
        </mxCell>
        <mxCell id="74" value="" style="strokeWidth=2;strokeColor=#006EAF;dashed=0;align=center;html=1;fontSize=8;shape=mxgraph.eip.messageChannel;shadow=0;fillColor=#1ba1e2;fontStyle=0;fontColor=#ffffff;" parent="1" vertex="1">
          <mxGeometry x="994" y="901" width="317" height="20" as="geometry" />
        </mxCell>
        <mxCell id="75" value="" style="image;html=1;image=img/lib/clip_art/networking/Wireless_Router_128x128.png;shadow=1;strokeColor=#006EAF;fillColor=#1ba1e2;fontSize=18;fontStyle=0;fontColor=#ffffff;" parent="1" vertex="1">
          <mxGeometry x="820" y="480" width="80" height="80" as="geometry" />
        </mxCell>
        <mxCell id="94" value="" style="edgeStyle=elbowEdgeStyle;strokeWidth=2;rounded=0;endArrow=none;startArrow=none;startSize=10;endSize=10;dashed=0;html=1;strokeColor=#006EAF;fontSize=18;fontColor=#080808;startFill=0;endFill=0;fontStyle=0;fillColor=#1ba1e2;" parent="1" source="36" target="48" edge="1">
          <mxGeometry relative="1" as="geometry">
            <mxPoint x="557" y="189" as="sourcePoint" />
            <mxPoint x="557" y="219" as="targetPoint" />
          </mxGeometry>
        </mxCell>
        <mxCell id="95" value="" style="edgeStyle=elbowEdgeStyle;strokeWidth=2;rounded=0;endArrow=none;startArrow=none;startSize=10;endSize=10;dashed=0;html=1;strokeColor=#006EAF;fontSize=18;fontColor=#080808;startFill=0;endFill=0;fontStyle=0;fillColor=#1ba1e2;" parent="1" source="37" target="48" edge="1">
          <mxGeometry relative="1" as="geometry">
            <mxPoint x="307" y="374" as="sourcePoint" />
            <mxPoint x="307" y="414" as="targetPoint" />
          </mxGeometry>
        </mxCell>
        <mxCell id="96" value="" style="edgeStyle=elbowEdgeStyle;strokeWidth=2;rounded=0;endArrow=none;startArrow=none;startSize=10;endSize=10;dashed=0;html=1;strokeColor=#006EAF;fontSize=18;fontColor=#080808;startFill=0;endFill=0;fontStyle=0;fillColor=#1ba1e2;" parent="1" source="38" target="48" edge="1">
          <mxGeometry relative="1" as="geometry">
            <mxPoint x="317" y="384" as="sourcePoint" />
            <mxPoint x="317" y="424" as="targetPoint" />
          </mxGeometry>
        </mxCell>
        <mxCell id="97" value="" style="edgeStyle=elbowEdgeStyle;strokeWidth=2;rounded=0;endArrow=none;startArrow=none;startSize=10;endSize=10;dashed=0;html=1;strokeColor=#006EAF;fontSize=18;fontColor=#080808;startFill=0;endFill=0;fontStyle=0;fillColor=#1ba1e2;" parent="1" source="39" target="48" edge="1">
          <mxGeometry relative="1" as="geometry">
            <mxPoint x="497" y="374" as="sourcePoint" />
            <mxPoint x="497" y="414" as="targetPoint" />
          </mxGeometry>
        </mxCell>
        <mxCell id="98" value="" style="edgeStyle=elbowEdgeStyle;strokeWidth=2;rounded=0;endArrow=none;startArrow=none;startSize=10;endSize=10;dashed=0;html=1;strokeColor=#006EAF;fontSize=18;fontColor=#080808;startFill=0;endFill=0;fontStyle=0;fillColor=#1ba1e2;" parent="1" source="40" target="48" edge="1">
          <mxGeometry relative="1" as="geometry">
            <mxPoint x="507" y="384" as="sourcePoint" />
            <mxPoint x="507" y="424" as="targetPoint" />
          </mxGeometry>
        </mxCell>
        <mxCell id="99" value="" style="edgeStyle=elbowEdgeStyle;strokeWidth=2;rounded=0;endArrow=none;startArrow=none;startSize=10;endSize=10;dashed=0;html=1;strokeColor=#006EAF;fontSize=18;fontColor=#080808;startFill=0;endFill=0;fontStyle=0;fillColor=#1ba1e2;" parent="1" source="41" target="48" edge="1">
          <mxGeometry relative="1" as="geometry">
            <mxPoint x="742" y="374" as="sourcePoint" />
            <mxPoint x="742" y="414" as="targetPoint" />
          </mxGeometry>
        </mxCell>
        <mxCell id="100" value="" style="edgeStyle=elbowEdgeStyle;strokeWidth=2;rounded=0;endArrow=none;startArrow=none;startSize=10;endSize=10;dashed=0;html=1;strokeColor=#006EAF;fontSize=18;fontColor=#080808;startFill=0;endFill=0;fontStyle=0;fillColor=#1ba1e2;" parent="1" source="42" target="48" edge="1">
          <mxGeometry relative="1" as="geometry">
            <mxPoint x="752" y="384" as="sourcePoint" />
            <mxPoint x="752" y="424" as="targetPoint" />
          </mxGeometry>
        </mxCell>
        <mxCell id="101" value="" style="edgeStyle=elbowEdgeStyle;strokeWidth=2;rounded=0;endArrow=none;startArrow=none;startSize=10;endSize=10;dashed=0;html=1;strokeColor=#006EAF;fontSize=18;fontColor=#080808;startFill=0;endFill=0;fontStyle=0;fillColor=#1ba1e2;" parent="1" source="43" target="48" edge="1">
          <mxGeometry relative="1" as="geometry">
            <mxPoint x="762" y="394" as="sourcePoint" />
            <mxPoint x="762" y="434" as="targetPoint" />
          </mxGeometry>
        </mxCell>
        <mxCell id="102" value="" style="edgeStyle=elbowEdgeStyle;strokeWidth=2;rounded=0;endArrow=none;startArrow=none;startSize=10;endSize=10;dashed=0;html=1;strokeColor=#006EAF;fontSize=18;fontColor=#080808;startFill=0;endFill=0;fontStyle=0;fillColor=#1ba1e2;" parent="1" source="44" target="48" edge="1">
          <mxGeometry relative="1" as="geometry">
            <mxPoint x="772" y="404" as="sourcePoint" />
            <mxPoint x="772" y="444" as="targetPoint" />
          </mxGeometry>
        </mxCell>
        <mxCell id="103" value="" style="edgeStyle=elbowEdgeStyle;strokeWidth=2;rounded=0;endArrow=none;startArrow=none;startSize=10;endSize=10;dashed=0;html=1;strokeColor=#006EAF;fontSize=18;fontColor=#080808;startFill=0;endFill=0;fontStyle=0;exitX=0.07;exitY=0.4;exitDx=0;exitDy=0;exitPerimeter=0;entryX=0;entryY=0.5;entryDx=0;entryDy=0;fillColor=#1ba1e2;" parent="1" source="18" target="154" edge="1">
          <mxGeometry relative="1" as="geometry">
            <mxPoint x="1052.272727272727" y="489" as="sourcePoint" />
            <mxPoint x="250" y="430" as="targetPoint" />
            <Array as="points">
              <mxPoint x="230" y="460" />
            </Array>
          </mxGeometry>
        </mxCell>
        <mxCell id="104" value="" style="edgeStyle=elbowEdgeStyle;strokeWidth=2;rounded=0;endArrow=none;startArrow=none;startSize=10;endSize=10;dashed=0;html=1;strokeColor=#006EAF;fontSize=18;fontColor=#080808;startFill=0;endFill=0;fontStyle=0;fillColor=#1ba1e2;" parent="1" source="33" target="47" edge="1">
          <mxGeometry relative="1" as="geometry">
            <mxPoint x="792" y="416" as="sourcePoint" />
            <mxPoint x="792" y="456" as="targetPoint" />
          </mxGeometry>
        </mxCell>
        <mxCell id="105" value="" style="edgeStyle=elbowEdgeStyle;strokeWidth=2;rounded=0;endArrow=none;startArrow=none;startSize=10;endSize=10;dashed=0;html=1;strokeColor=#006EAF;fontSize=18;fontColor=#080808;startFill=0;endFill=0;fontStyle=0;fillColor=#1ba1e2;" parent="1" source="34" target="47" edge="1">
          <mxGeometry relative="1" as="geometry">
            <mxPoint x="977" y="181" as="sourcePoint" />
            <mxPoint x="977" y="211" as="targetPoint" />
          </mxGeometry>
        </mxCell>
        <mxCell id="106" value="" style="edgeStyle=elbowEdgeStyle;strokeWidth=2;rounded=0;endArrow=none;startArrow=none;startSize=10;endSize=10;dashed=0;html=1;strokeColor=#006EAF;fontSize=18;fontColor=#080808;startFill=0;endFill=0;fontStyle=0;fillColor=#1ba1e2;" parent="1" target="47" edge="1">
          <mxGeometry relative="1" as="geometry">
            <mxPoint x="1158" y="171" as="sourcePoint" />
            <mxPoint x="987" y="221" as="targetPoint" />
          </mxGeometry>
        </mxCell>
        <mxCell id="107" value="" style="edgeStyle=elbowEdgeStyle;strokeWidth=2;rounded=0;endArrow=none;startArrow=none;startSize=10;endSize=10;dashed=0;html=1;strokeColor=#006EAF;fontSize=18;fontColor=#080808;startFill=0;endFill=0;fontStyle=0;fillColor=#1ba1e2;" parent="1" source="52" target="47" edge="1">
          <mxGeometry relative="1" as="geometry">
            <mxPoint x="997" y="201" as="sourcePoint" />
            <mxPoint x="997" y="231" as="targetPoint" />
          </mxGeometry>
        </mxCell>
        <mxCell id="132" style="edgeStyle=orthogonalEdgeStyle;rounded=0;html=1;startArrow=none;startFill=0;endArrow=none;endFill=0;fontSize=18;fontColor=#080808;strokeColor=#006EAF;strokeWidth=2;curved=1;fontStyle=0;exitX=0;exitY=0.5;exitDx=2.7;exitDy=0;exitPerimeter=0;fillColor=#1ba1e2;" parent="1" source="70" edge="1">
          <mxGeometry relative="1" as="geometry">
            <Array as="points">
              <mxPoint x="1060" y="728" />
              <mxPoint x="1060" y="560" />
            </Array>
            <mxPoint x="1209" y="620" as="sourcePoint" />
            <mxPoint x="1049" y="548" as="targetPoint" />
          </mxGeometry>
        </mxCell>
        <mxCell id="133" style="edgeStyle=orthogonalEdgeStyle;rounded=0;html=1;startArrow=none;startFill=0;endArrow=none;endFill=0;fontSize=18;fontColor=#080808;strokeColor=#006EAF;strokeWidth=2;curved=1;fontStyle=0;entryX=0.5;entryY=1;entryDx=0;entryDy=0;fillColor=#1ba1e2;" parent="1" source="11" target="0OJiW1GiiW1duZjf36XK-176" edge="1">
          <mxGeometry relative="1" as="geometry">
            <Array as="points">
              <mxPoint x="956" y="912" />
              <mxPoint x="956" y="552" />
              <mxPoint x="1049" y="552" />
            </Array>
            <mxPoint x="1049" y="789" as="sourcePoint" />
            <mxPoint x="1037" y="680" as="targetPoint" />
          </mxGeometry>
        </mxCell>
        <mxCell id="134" value="" style="edgeStyle=elbowEdgeStyle;strokeWidth=2;rounded=0;endArrow=none;startArrow=none;startSize=10;endSize=10;dashed=0;html=1;strokeColor=#006EAF;fontSize=18;fontColor=#080808;startFill=0;endFill=0;fontStyle=0;fillColor=#1ba1e2;" parent="1" edge="1">
          <mxGeometry relative="1" as="geometry">
            <mxPoint x="1469.571428571429" y="677" as="sourcePoint" />
            <mxPoint x="1459" y="718" as="targetPoint" />
          </mxGeometry>
        </mxCell>
        <mxCell id="135" value="" style="edgeStyle=elbowEdgeStyle;strokeWidth=2;rounded=0;endArrow=none;startArrow=none;startSize=10;endSize=10;dashed=0;html=1;strokeColor=#006EAF;fontSize=18;fontColor=#080808;startFill=0;endFill=0;fontStyle=0;fillColor=#1ba1e2;" parent="1" edge="1">
          <mxGeometry relative="1" as="geometry">
            <mxPoint x="1379.571428571429" y="677" as="sourcePoint" />
            <mxPoint x="1379" y="721" as="targetPoint" />
          </mxGeometry>
        </mxCell>
        <mxCell id="136" value="" style="edgeStyle=elbowEdgeStyle;strokeWidth=2;rounded=0;endArrow=none;startArrow=none;startSize=10;endSize=10;dashed=0;html=1;strokeColor=#006EAF;fontSize=18;fontColor=#080808;startFill=0;endFill=0;fontStyle=0;fillColor=#1ba1e2;" parent="1" edge="1">
          <mxGeometry relative="1" as="geometry">
            <mxPoint x="1269.571428571429" y="677" as="sourcePoint" />
            <mxPoint x="1269" y="721" as="targetPoint" />
          </mxGeometry>
        </mxCell>
        <mxCell id="138" value="" style="edgeStyle=elbowEdgeStyle;strokeWidth=2;rounded=0;endArrow=none;startArrow=none;startSize=10;endSize=10;dashed=0;html=1;strokeColor=#006EAF;fontSize=18;fontColor=#080808;startFill=0;endFill=0;fontStyle=0;fillColor=#1ba1e2;" parent="1" edge="1">
          <mxGeometry relative="1" as="geometry">
            <mxPoint x="1055.2857142857142" y="866" as="sourcePoint" />
            <mxPoint x="1054.952380952381" y="898" as="targetPoint" />
          </mxGeometry>
        </mxCell>
        <mxCell id="139" value="" style="edgeStyle=elbowEdgeStyle;strokeWidth=2;rounded=0;endArrow=none;startArrow=none;startSize=10;endSize=10;dashed=0;html=1;strokeColor=#006EAF;fontSize=18;fontColor=#080808;startFill=0;endFill=0;fontStyle=0;fillColor=#1ba1e2;" parent="1" edge="1">
          <mxGeometry relative="1" as="geometry">
            <mxPoint x="1145.2857142857147" y="866" as="sourcePoint" />
            <mxPoint x="1145.4285714285716" y="898" as="targetPoint" />
          </mxGeometry>
        </mxCell>
        <mxCell id="140" value="" style="edgeStyle=elbowEdgeStyle;strokeWidth=2;rounded=0;endArrow=none;startArrow=none;startSize=10;endSize=10;dashed=0;html=1;strokeColor=#006EAF;fontSize=18;fontColor=#080808;startFill=0;endFill=0;fontStyle=0;fillColor=#1ba1e2;" parent="1" edge="1">
          <mxGeometry relative="1" as="geometry">
            <mxPoint x="1245.2857142857147" y="866" as="sourcePoint" />
            <mxPoint x="1245.4285714285716" y="898" as="targetPoint" />
          </mxGeometry>
        </mxCell>
        <mxCell id="143" value="" style="edgeStyle=elbowEdgeStyle;strokeWidth=2;rounded=0;endArrow=none;startArrow=none;startSize=10;endSize=10;dashed=0;html=1;strokeColor=#006EAF;fontSize=18;fontColor=#080808;startFill=0;endFill=0;fontStyle=0;fillColor=#1ba1e2;" parent="1" target="62" edge="1">
          <mxGeometry relative="1" as="geometry">
            <mxPoint x="389.5" y="713.25" as="sourcePoint" />
            <mxPoint x="535.0826446280992" y="322.62190082644634" as="targetPoint" />
          </mxGeometry>
        </mxCell>
        <mxCell id="144" value="" style="edgeStyle=elbowEdgeStyle;strokeWidth=2;rounded=0;endArrow=none;startArrow=none;startSize=10;endSize=10;dashed=0;html=1;strokeColor=#006EAF;fontSize=18;fontColor=#080808;startFill=0;endFill=0;fontStyle=0;fillColor=#1ba1e2;" parent="1" target="62" edge="1">
          <mxGeometry relative="1" as="geometry">
            <mxPoint x="479.5" y="713.25" as="sourcePoint" />
            <mxPoint x="400.37190082644634" y="753.2004132231405" as="targetPoint" />
          </mxGeometry>
        </mxCell>
        <mxCell id="145" value="" style="edgeStyle=elbowEdgeStyle;strokeWidth=2;rounded=0;endArrow=none;startArrow=none;startSize=10;endSize=10;dashed=0;html=1;strokeColor=#006EAF;fontSize=18;fontColor=#080808;startFill=0;endFill=0;fontStyle=0;fillColor=#1ba1e2;" parent="1" target="62" edge="1">
          <mxGeometry relative="1" as="geometry">
            <mxPoint x="579.5" y="713.25" as="sourcePoint" />
            <mxPoint x="489.62809917355366" y="753.2004132231405" as="targetPoint" />
          </mxGeometry>
        </mxCell>
        <mxCell id="147" value="" style="edgeStyle=elbowEdgeStyle;strokeWidth=2;rounded=0;endArrow=none;startArrow=none;startSize=10;endSize=10;dashed=0;html=1;strokeColor=#006EAF;fontSize=18;fontColor=#080808;startFill=0;endFill=0;fontStyle=0;fillColor=#1ba1e2;" parent="1" target="66" edge="1">
          <mxGeometry relative="1" as="geometry">
            <mxPoint x="581.6363636363635" y="883" as="sourcePoint" />
            <mxPoint x="591.6280991735537" y="798.9504132231405" as="targetPoint" />
          </mxGeometry>
        </mxCell>
        <mxCell id="148" value="" style="edgeStyle=elbowEdgeStyle;strokeWidth=2;rounded=0;endArrow=none;startArrow=none;startSize=10;endSize=10;dashed=0;html=1;strokeColor=#006EAF;fontSize=18;fontColor=#080808;startFill=0;endFill=0;fontStyle=0;fillColor=#1ba1e2;" parent="1" target="66" edge="1">
          <mxGeometry relative="1" as="geometry">
            <mxPoint x="672.5454545454545" y="883" as="sourcePoint" />
            <mxPoint x="601.6280991735537" y="808.9504132231405" as="targetPoint" />
          </mxGeometry>
        </mxCell>
        <mxCell id="149" value="" style="edgeStyle=elbowEdgeStyle;strokeWidth=2;rounded=0;endArrow=none;startArrow=none;startSize=10;endSize=10;dashed=0;html=1;strokeColor=#006EAF;fontSize=18;fontColor=#080808;startFill=0;endFill=0;fontStyle=0;fillColor=#1ba1e2;" parent="1" target="66" edge="1">
          <mxGeometry relative="1" as="geometry">
            <mxPoint x="771.8421052631579" y="883" as="sourcePoint" />
            <mxPoint x="611.6280991735537" y="818.9504132231405" as="targetPoint" />
          </mxGeometry>
        </mxCell>
        <mxCell id="150" value="" style="edgeStyle=elbowEdgeStyle;strokeWidth=2;rounded=0;endArrow=none;startArrow=none;startSize=10;endSize=10;dashed=0;html=1;strokeColor=#006EAF;fontSize=18;fontColor=#080808;startFill=0;endFill=0;fontStyle=0;fillColor=#1ba1e2;" parent="1" source="75" target="66" edge="1">
          <mxGeometry relative="1" as="geometry">
            <mxPoint x="503.62809917355366" y="799.1983471074379" as="sourcePoint" />
            <mxPoint x="503.62809917355366" y="828.9504132231405" as="targetPoint" />
          </mxGeometry>
        </mxCell>
        <mxCell id="154" value="" style="image;html=1;image=img/lib/clip_art/networking/Router_128x128.png;shadow=0;strokeColor=#006EAF;fillColor=#1ba1e2;fontSize=18;fontStyle=0;fontColor=#ffffff;" parent="1" vertex="1">
          <mxGeometry x="237" y="284" width="80" height="80" as="geometry" />
        </mxCell>
        <mxCell id="155" value="" style="edgeStyle=elbowEdgeStyle;strokeWidth=2;rounded=0;endArrow=none;startArrow=none;startSize=10;endSize=10;dashed=0;html=1;strokeColor=#006EAF;fontSize=18;fontColor=#080808;startFill=0;endFill=0;fontStyle=0;fillColor=#1ba1e2;" parent="1" source="154" target="48" edge="1">
          <mxGeometry relative="1" as="geometry">
            <mxPoint x="434.57971014492773" y="201.68115942028987" as="sourcePoint" />
            <mxPoint x="292.29268292682923" y="403.7560975609755" as="targetPoint" />
          </mxGeometry>
        </mxCell>
        <mxCell id="156" value="" style="image;html=1;image=img/lib/clip_art/computers/Workstation_128x128.png;shadow=0;strokeColor=#006EAF;fillColor=#1ba1e2;fontSize=18;fontStyle=0;fontColor=#ffffff;" parent="1" vertex="1">
          <mxGeometry x="50" y="647" width="80" height="80" as="geometry" />
        </mxCell>
        <mxCell id="157" value="" style="image;html=1;image=img/lib/clip_art/computers/Workstation_128x128.png;shadow=0;strokeColor=#006EAF;fillColor=#1ba1e2;fontSize=18;fontStyle=0;fontColor=#ffffff;" parent="1" vertex="1">
          <mxGeometry x="50" y="749" width="80" height="80" as="geometry" />
        </mxCell>
        <mxCell id="158" style="edgeStyle=orthogonalEdgeStyle;rounded=0;html=1;startArrow=none;startFill=0;endArrow=none;endFill=0;fontSize=18;fontColor=#080808;strokeColor=#006EAF;strokeWidth=2;curved=1;fontStyle=0;fillColor=#1ba1e2;" parent="1" edge="1">
          <mxGeometry relative="1" as="geometry">
            <Array as="points">
              <mxPoint x="227" y="707" />
              <mxPoint x="227" y="548" />
            </Array>
            <mxPoint x="137" y="707.1428571428573" as="sourcePoint" />
            <mxPoint x="406.99999999999955" y="548" as="targetPoint" />
          </mxGeometry>
        </mxCell>
        <mxCell id="159" style="edgeStyle=orthogonalEdgeStyle;rounded=0;html=1;startArrow=none;startFill=0;endArrow=none;endFill=0;fontSize=18;fontColor=#080808;strokeColor=#006EAF;strokeWidth=2;curved=1;fontStyle=0;fillColor=#1ba1e2;" parent="1" edge="1">
          <mxGeometry relative="1" as="geometry">
            <Array as="points">
              <mxPoint x="237" y="809" />
              <mxPoint x="237" y="548" />
            </Array>
            <mxPoint x="137" y="808.8571428571427" as="sourcePoint" />
            <mxPoint x="406.99999999999955" y="548" as="targetPoint" />
          </mxGeometry>
        </mxCell>
        <mxCell id="160" value="" style="image;html=1;image=img/lib/clip_art/networking/UPS_128x128.png;shadow=0;strokeColor=#006EAF;fillColor=#1ba1e2;fontSize=18;fontStyle=0;fontColor=#ffffff;" parent="1" vertex="1">
          <mxGeometry x="542" y="830" width="76" height="60" as="geometry" />
        </mxCell>
        <mxCell id="167" value="中央集控中心" style="text;html=1;strokeColor=#006EAF;fillColor=#1ba1e2;align=center;verticalAlign=middle;whiteSpace=wrap;overflow=hidden;shadow=0;fontSize=36;fontStyle=0;fontColor=#ffffff;" parent="1" vertex="1">
          <mxGeometry x="638" y="1.7763568394002505e-15" width="240" height="110" as="geometry" />
        </mxCell>
        <mxCell id="0OJiW1GiiW1duZjf36XK-176" value="" style="image;html=1;image=img/lib/clip_art/networking/Wireless_Router_128x128.png;shadow=1;strokeColor=#006EAF;fillColor=#1ba1e2;fontSize=18;fontStyle=0;fontColor=#ffffff;" vertex="1" parent="1">
          <mxGeometry x="1009" y="480" width="80" height="80" as="geometry" />
        </mxCell>
        <mxCell id="0OJiW1GiiW1duZjf36XK-177" value="" style="image;html=1;image=img/lib/clip_art/networking/UPS_128x128.png;shadow=0;strokeColor=#006EAF;fillColor=#1ba1e2;fontSize=18;fontStyle=0;fontColor=#ffffff;" vertex="1" parent="1">
          <mxGeometry x="638" y="830" width="76" height="60" as="geometry" />
        </mxCell>
        <mxCell id="0OJiW1GiiW1duZjf36XK-178" value="" style="image;html=1;image=img/lib/clip_art/networking/UPS_128x128.png;shadow=0;strokeColor=#006EAF;fillColor=#1ba1e2;fontSize=18;fontStyle=0;fontColor=#ffffff;" vertex="1" parent="1">
          <mxGeometry x="738" y="829" width="76" height="60" as="geometry" />
        </mxCell>
        <mxCell id="0OJiW1GiiW1duZjf36XK-179" value="" style="image;html=1;image=img/lib/clip_art/networking/UPS_128x128.png;shadow=0;strokeColor=#006EAF;fillColor=#1ba1e2;fontSize=18;fontStyle=0;fontColor=#ffffff;" vertex="1" parent="1">
          <mxGeometry x="363" y="658.75" width="76" height="60" as="geometry" />
        </mxCell>
        <mxCell id="0OJiW1GiiW1duZjf36XK-180" value="" style="image;html=1;image=img/lib/clip_art/networking/UPS_128x128.png;shadow=0;strokeColor=#006EAF;fillColor=#1ba1e2;fontSize=18;fontStyle=0;fontColor=#ffffff;" vertex="1" parent="1">
          <mxGeometry x="459" y="658.75" width="76" height="60" as="geometry" />
        </mxCell>
        <mxCell id="0OJiW1GiiW1duZjf36XK-181" value="" style="image;html=1;image=img/lib/clip_art/networking/UPS_128x128.png;shadow=0;strokeColor=#006EAF;fillColor=#1ba1e2;fontSize=18;fontStyle=0;fontColor=#ffffff;" vertex="1" parent="1">
          <mxGeometry x="559" y="657.75" width="76" height="60" as="geometry" />
        </mxCell>
        <mxCell id="0OJiW1GiiW1duZjf36XK-173" value="" style="image;html=1;image=img/lib/clip_art/networking/Wireless_Router_128x128.png;shadow=1;strokeColor=#006EAF;fillColor=#1ba1e2;fontSize=18;fontStyle=0;fontColor=#ffffff;" vertex="1" parent="1">
          <mxGeometry x="630" y="480" width="80" height="80" as="geometry" />
        </mxCell>
        <mxCell id="0OJiW1GiiW1duZjf36XK-183" value="" style="image;html=1;image=img/lib/clip_art/networking/UPS_128x128.png;shadow=0;strokeColor=#006EAF;fillColor=#1ba1e2;fontSize=18;fontStyle=0;fontColor=#ffffff;" vertex="1" parent="1">
          <mxGeometry x="1021" y="806" width="76" height="60" as="geometry" />
        </mxCell>
        <mxCell id="0OJiW1GiiW1duZjf36XK-184" value="" style="image;html=1;image=img/lib/clip_art/networking/UPS_128x128.png;shadow=0;strokeColor=#006EAF;fillColor=#1ba1e2;fontSize=18;fontStyle=0;fontColor=#ffffff;" vertex="1" parent="1">
          <mxGeometry x="1112" y="806" width="76" height="60" as="geometry" />
        </mxCell>
        <mxCell id="0OJiW1GiiW1duZjf36XK-185" value="" style="image;html=1;image=img/lib/clip_art/networking/UPS_128x128.png;shadow=0;strokeColor=#006EAF;fillColor=#1ba1e2;fontSize=18;fontStyle=0;fontColor=#ffffff;" vertex="1" parent="1">
          <mxGeometry x="1210" y="806" width="76" height="60" as="geometry" />
        </mxCell>
        <mxCell id="0OJiW1GiiW1duZjf36XK-186" value="" style="image;html=1;image=img/lib/clip_art/networking/UPS_128x128.png;shadow=0;strokeColor=#006EAF;fillColor=#1ba1e2;fontSize=18;fontStyle=0;fontColor=#ffffff;" vertex="1" parent="1">
          <mxGeometry x="1241" y="622" width="76" height="60" as="geometry" />
        </mxCell>
        <mxCell id="0OJiW1GiiW1duZjf36XK-187" value="" style="image;html=1;image=img/lib/clip_art/networking/UPS_128x128.png;shadow=0;strokeColor=#006EAF;fillColor=#1ba1e2;fontSize=18;fontStyle=0;fontColor=#ffffff;" vertex="1" parent="1">
          <mxGeometry x="1348" y="622" width="76" height="60" as="geometry" />
        </mxCell>
        <mxCell id="0OJiW1GiiW1duZjf36XK-188" value="" style="image;html=1;image=img/lib/clip_art/networking/UPS_128x128.png;shadow=0;strokeColor=#006EAF;fillColor=#1ba1e2;fontSize=18;fontStyle=0;fontColor=#ffffff;" vertex="1" parent="1">
          <mxGeometry x="1438" y="622" width="76" height="60" as="geometry" />
        </mxCell>
        <mxCell id="0OJiW1GiiW1duZjf36XK-189" value="手动输入" style="text;html=1;align=center;verticalAlign=middle;whiteSpace=wrap;rounded=0;fontStyle=1;fontSize=16;strokeColor=#006EAF;fillColor=#1ba1e2;fontColor=#ffffff;" vertex="1" parent="1">
          <mxGeometry x="22" y="725" width="80" height="30" as="geometry" />
        </mxCell>
        <mxCell id="0OJiW1GiiW1duZjf36XK-190" value="工控机" style="text;html=1;align=center;verticalAlign=middle;whiteSpace=wrap;rounded=0;fontStyle=1;fontSize=16;strokeColor=#006EAF;fillColor=#1ba1e2;fontColor=#ffffff;" vertex="1" parent="1">
          <mxGeometry x="22" y="839" width="60" height="30" as="geometry" />
        </mxCell>
        <mxCell id="0OJiW1GiiW1duZjf36XK-191" value="" style="verticalLabelPosition=bottom;sketch=0;aspect=fixed;html=1;verticalAlign=top;strokeColor=#006EAF;align=center;outlineConnect=0;shape=mxgraph.citrix.pda;fillColor=#1ba1e2;fontColor=#ffffff;" vertex="1" parent="1">
          <mxGeometry x="1140" y="94.67" width="40" height="81.33" as="geometry" />
        </mxCell>
        <mxCell id="0OJiW1GiiW1duZjf36XK-194" style="edgeStyle=orthogonalEdgeStyle;rounded=0;html=1;startArrow=none;startFill=0;endArrow=none;endFill=0;fontSize=18;fontColor=#080808;strokeColor=#006EAF;strokeWidth=2;curved=1;fontStyle=0;entryX=0.75;entryY=1;entryDx=0;entryDy=0;exitX=1;exitY=0.5;exitDx=-2.7;exitDy=0;exitPerimeter=0;fillColor=#1ba1e2;" edge="1" parent="1" source="48">
          <mxGeometry relative="1" as="geometry">
            <Array as="points">
              <mxPoint x="1340" y="414" />
              <mxPoint x="1340" y="224" />
            </Array>
            <mxPoint x="1469" y="284" as="sourcePoint" />
            <mxPoint x="1329" y="224" as="targetPoint" />
          </mxGeometry>
        </mxCell>
        <mxCell id="0OJiW1GiiW1duZjf36XK-195" value="&lt;p class=&quot;MsoNormal&quot; style=&quot;font-size: 22px;&quot;&gt;&lt;span style=&quot;font-size: 22px;&quot;&gt;&lt;font style=&quot;font-size: 22px;&quot;&gt;熔化设备&lt;/font&gt;&lt;/span&gt;&lt;span style=&quot;font-size: 22px;&quot; lang=&quot;EN-US&quot;&gt;&lt;/span&gt;&lt;/p&gt;" style="text;html=1;align=center;verticalAlign=middle;whiteSpace=wrap;rounded=0;fontStyle=1;fontSize=22;strokeColor=#006EAF;fillColor=#1ba1e2;fontColor=#ffffff;" vertex="1" parent="1">
          <mxGeometry x="459" y="767.25" width="124" height="30" as="geometry" />
        </mxCell>
        <mxCell id="0OJiW1GiiW1duZjf36XK-196" value="&lt;p class=&quot;MsoNormal&quot;&gt;&lt;a name=&quot;OLE_LINK2&quot;&gt;公辅设备&lt;/a&gt;&lt;span style=&quot;font-size: 11pt;&quot; lang=&quot;EN-US&quot;&gt;&lt;/span&gt;&lt;/p&gt;" style="text;html=1;align=center;verticalAlign=middle;whiteSpace=wrap;rounded=0;fontStyle=1;fontSize=22;strokeColor=#006EAF;fillColor=#1ba1e2;fontColor=#ffffff;" vertex="1" parent="1">
          <mxGeometry x="1298.5" y="740" width="124" height="30" as="geometry" />
        </mxCell>
        <mxCell id="0OJiW1GiiW1duZjf36XK-197" value="&lt;p class=&quot;MsoNormal&quot; style=&quot;font-size: 22px;&quot;&gt;&lt;a name=&quot;OLE_LINK3&quot; style=&quot;font-size: 22px;&quot;&gt;1#3200&lt;/a&gt;&lt;span style=&quot;font-size: 22px; font-family: 等线;&quot;&gt;吨压铸机配置&lt;/span&gt;&lt;span style=&quot;font-size: 22px;&quot; lang=&quot;EN-US&quot;&gt;&lt;/span&gt;&lt;/p&gt;" style="text;html=1;align=center;verticalAlign=middle;whiteSpace=wrap;rounded=0;fontStyle=1;fontSize=22;strokeColor=#006EAF;fillColor=#1ba1e2;fontColor=#ffffff;" vertex="1" parent="1">
          <mxGeometry x="589" y="932" width="218" height="30" as="geometry" />
        </mxCell>
        <mxCell id="0OJiW1GiiW1duZjf36XK-199" value="后期增加设备" style="text;html=1;align=center;verticalAlign=middle;whiteSpace=wrap;rounded=0;fontStyle=1;fontSize=22;strokeColor=#006EAF;fillColor=#1ba1e2;fontColor=#ffffff;" vertex="1" parent="1">
          <mxGeometry x="1051" y="930" width="218" height="30" as="geometry" />
        </mxCell>
        <mxCell id="0OJiW1GiiW1duZjf36XK-200" value="&lt;span style=&quot;line-height: 17.1818px; font-size: 22px;&quot;&gt;能源管理平台&lt;/span&gt;" style="rounded=1;whiteSpace=wrap;html=1;shadow=0;strokeColor=#006EAF;fillColor=#1ba1e2;fontSize=22;verticalAlign=top;opacity=70;fontStyle=0;strokeWidth=3;fontColor=#ffffff;" vertex="1" parent="1">
          <mxGeometry x="254.5" y="68.33" width="300" height="105" as="geometry" />
        </mxCell>
        <mxCell id="0OJiW1GiiW1duZjf36XK-201" value="" style="image;html=1;image=img/lib/clip_art/computers/Netbook_128x128.png;shadow=0;strokeColor=#006EAF;fillColor=#1ba1e2;fontSize=18;fontStyle=0;fontColor=#ffffff;" vertex="1" parent="1">
          <mxGeometry x="274.5" y="88.33" width="80" height="80" as="geometry" />
        </mxCell>
        <mxCell id="0OJiW1GiiW1duZjf36XK-202" value="" style="image;html=1;image=img/lib/clip_art/computers/Netbook_128x128.png;shadow=0;strokeColor=#006EAF;fillColor=#1ba1e2;fontSize=18;fontStyle=0;fontColor=#ffffff;" vertex="1" parent="1">
          <mxGeometry x="364.5" y="88.33" width="80" height="80" as="geometry" />
        </mxCell>
        <mxCell id="0OJiW1GiiW1duZjf36XK-203" value="" style="strokeWidth=2;strokeColor=#006EAF;dashed=0;align=center;html=1;fontSize=8;shape=mxgraph.eip.messageChannel;shadow=0;fillColor=#1ba1e2;fontStyle=0;fontColor=#ffffff;" vertex="1" parent="1">
          <mxGeometry x="272.5" y="198.32999999999998" width="412" height="20" as="geometry" />
        </mxCell>
        <mxCell id="0OJiW1GiiW1duZjf36XK-205" value="" style="edgeStyle=elbowEdgeStyle;strokeWidth=2;rounded=0;endArrow=none;startArrow=none;startSize=10;endSize=10;dashed=0;html=1;strokeColor=#006EAF;fontSize=18;fontColor=#080808;startFill=0;endFill=0;fontStyle=0;fillColor=#1ba1e2;" edge="1" parent="1" source="0OJiW1GiiW1duZjf36XK-201" target="0OJiW1GiiW1duZjf36XK-203">
          <mxGeometry relative="1" as="geometry">
            <mxPoint x="139.5" y="413.33" as="sourcePoint" />
            <mxPoint x="139.5" y="453.33" as="targetPoint" />
          </mxGeometry>
        </mxCell>
        <mxCell id="0OJiW1GiiW1duZjf36XK-206" value="" style="edgeStyle=elbowEdgeStyle;strokeWidth=2;rounded=0;endArrow=none;startArrow=none;startSize=10;endSize=10;dashed=0;html=1;strokeColor=#006EAF;fontSize=18;fontColor=#080808;startFill=0;endFill=0;fontStyle=0;fillColor=#1ba1e2;" edge="1" parent="1" source="0OJiW1GiiW1duZjf36XK-202" target="0OJiW1GiiW1duZjf36XK-203">
          <mxGeometry relative="1" as="geometry">
            <mxPoint x="324.5" y="178.32999999999998" as="sourcePoint" />
            <mxPoint x="324.5" y="208.32999999999998" as="targetPoint" />
          </mxGeometry>
        </mxCell>
        <mxCell id="0OJiW1GiiW1duZjf36XK-207" value="" style="edgeStyle=elbowEdgeStyle;strokeWidth=2;rounded=0;endArrow=none;startArrow=none;startSize=10;endSize=10;dashed=0;html=1;strokeColor=#006EAF;fontSize=18;fontColor=#080808;startFill=0;endFill=0;fontStyle=0;fillColor=#1ba1e2;" edge="1" parent="1" target="0OJiW1GiiW1duZjf36XK-203">
          <mxGeometry relative="1" as="geometry">
            <mxPoint x="505.5" y="168.32999999999998" as="sourcePoint" />
            <mxPoint x="334.5" y="218.32999999999998" as="targetPoint" />
          </mxGeometry>
        </mxCell>
        <mxCell id="0OJiW1GiiW1duZjf36XK-208" value="" style="edgeStyle=elbowEdgeStyle;strokeWidth=2;rounded=0;endArrow=none;startArrow=none;startSize=10;endSize=10;dashed=0;html=1;strokeColor=#006EAF;fontSize=18;fontColor=#080808;startFill=0;endFill=0;fontStyle=0;entryX=0.007;entryY=0.367;entryDx=0;entryDy=0;entryPerimeter=0;exitX=1;exitY=0.5;exitDx=-2.7;exitDy=0;exitPerimeter=0;fillColor=#1ba1e2;" edge="1" parent="1" source="0OJiW1GiiW1duZjf36XK-203" target="47">
          <mxGeometry relative="1" as="geometry">
            <mxPoint x="644.666666666667" y="160.32999999999993" as="sourcePoint" />
            <mxPoint x="344.5" y="228.32999999999998" as="targetPoint" />
            <Array as="points">
              <mxPoint x="920" y="208" />
            </Array>
          </mxGeometry>
        </mxCell>
        <mxCell id="0OJiW1GiiW1duZjf36XK-209" value="" style="verticalLabelPosition=bottom;sketch=0;aspect=fixed;html=1;verticalAlign=top;strokeColor=#006EAF;align=center;outlineConnect=0;shape=mxgraph.citrix.pda;fillColor=#1ba1e2;fontColor=#ffffff;" vertex="1" parent="1">
          <mxGeometry x="487.5" y="92" width="40" height="81.33" as="geometry" />
        </mxCell>
        <mxCell id="0OJiW1GiiW1duZjf36XK-211" value="&lt;p class=&quot;MsoNormal&quot; style=&quot;font-size: 22px;&quot;&gt;&lt;span style=&quot;font-size: 22px;&quot;&gt;&lt;font style=&quot;font-size: 22px;&quot;&gt;质检设备&lt;/font&gt;&lt;/span&gt;&lt;span style=&quot;font-size: 22px;&quot; lang=&quot;EN-US&quot;&gt;&lt;/span&gt;&lt;/p&gt;" style="text;html=1;align=center;verticalAlign=middle;whiteSpace=wrap;rounded=0;fontStyle=1;fontSize=22;strokeColor=#006EAF;fillColor=#1ba1e2;fontColor=#ffffff;" vertex="1" parent="1">
          <mxGeometry x="13" y="598" width="124" height="30" as="geometry" />
        </mxCell>
      </root>
    </mxGraphModel>
  </diagram>
</mxfile>
